<?xml version="1.0" standalone="no"?>
<!DOCTYPE svg PUBLIC "-//W3C//DTD SVG 20010904//EN"
 "http://www.w3.org/TR/2001/REC-SVG-20010904/DTD/svg10.dtd">
<svg version="1.0" xmlns="http://www.w3.org/2000/svg"
 width="1702.000000pt" height="1702.000000pt" viewBox="0 0 1702.000000 1702.000000"
 preserveAspectRatio="xMidYMid meet">
<metadata>
Created by potrace 1.11, written by Peter Selinger 2001-2013
</metadata>
<g transform="translate(0.000000,1702.000000) scale(0.100000,-0.100000)"
fill="#000000" stroke="none">
<path d="M8367 16658 c-17 -13 -103 -188 -132 -268 -55 -153 -69 -198 -100
-317 -30 -116 -46 -190 -60 -286 -35 -238 -44 -370 -50 -727 -6 -359 -9 -401
-40 -610 -21 -141 -89 -361 -141 -457 -15 -27 -15 -26 -8 32 13 112 8 301 -11
395 -3 14 -8 41 -11 60 -3 19 -10 49 -14 65 -5 17 -11 41 -14 55 -13 70 -91
299 -181 530 -31 80 -57 150 -59 155 -13 56 -42 124 -61 141 -27 25 -70 22
-85 -6 -20 -38 -33 -176 -45 -489 -11 -284 -14 -305 -81 -569 -25 -101 -57
-239 -69 -305 -13 -67 -24 -111 -25 -97 -1 14 -3 36 -5 50 -3 14 -6 59 -8 100
-4 77 -18 119 -40 121 -7 0 -20 2 -29 4 -10 2 -27 -4 -39 -14 -19 -15 -21 -28
-24 -211 -2 -107 -6 -213 -10 -235 -6 -41 -30 -177 -40 -230 -9 -51 -14 -76
-30 -147 -3 -13 -21 -93 -41 -178 -20 -85 -47 -202 -60 -260 -16 -73 -22 -88
-18 -50 8 77 14 131 20 160 19 104 26 715 11 885 -17 182 -19 196 -42 355 -12
80 -27 159 -49 265 -14 66 -26 134 -26 150 0 48 -36 204 -63 275 -13 36 -66
148 -116 250 -93 187 -134 295 -145 384 -9 63 -21 84 -51 92 -37 9 -70 -2 -82
-28 -12 -28 -8 -128 8 -206 17 -85 61 -198 145 -371 99 -205 141 -313 151
-386 14 -107 7 -392 -12 -530 -26 -181 -36 -256 -41 -290 -2 -22 -7 -58 -10
-80 -11 -88 -14 -112 -19 -165 -3 -30 -7 -73 -10 -95 -17 -159 -25 -473 -15
-587 7 -66 0 -67 -25 -1 -10 26 -21 53 -25 58 -4 6 -42 87 -85 180 -42 94 -88
195 -102 225 -144 316 -272 679 -332 940 -47 199 -68 364 -77 580 -3 85 -11
161 -17 168 -6 7 -22 12 -36 10 -21 -2 -33 -17 -62 -72 -37 -69 -104 -255
-113 -311 -2 -16 -7 -49 -11 -72 -8 -50 -8 -188 -1 -223 3 -13 8 -42 12 -65 7
-51 33 -169 94 -425 45 -194 79 -350 85 -395 1 -11 5 -40 9 -65 17 -111 27
-307 30 -595 2 -199 1 -224 -10 -187 -7 23 -15 55 -18 70 -12 72 -26 161 -31
197 -9 66 -17 119 -21 140 -2 11 -6 40 -9 65 -3 25 -7 56 -10 70 -2 14 -6 41
-9 60 -14 92 -39 223 -57 295 -11 44 -22 85 -23 90 -45 178 -182 480 -356 785
-60 105 -109 196 -186 344 -39 76 -79 143 -89 148 -24 14 -62 1 -80 -26 -16
-24 -12 -47 50 -347 2 -9 6 -34 9 -55 4 -22 8 -46 11 -54 2 -8 6 -31 9 -50 3
-19 12 -73 21 -120 8 -47 29 -164 46 -260 58 -334 134 -687 188 -880 46 -161
145 -443 164 -468 5 -7 8 -15 5 -18 -14 -13 -160 327 -219 510 -47 147 -65
210 -75 261 -2 11 -6 31 -9 45 -3 14 -7 35 -10 48 -2 13 -6 31 -9 40 -3 9 -8
40 -11 67 -4 28 -8 57 -10 65 -2 8 -7 47 -10 85 -4 39 -9 87 -11 109 -4 48
-19 66 -54 66 -30 0 -45 -15 -82 -80 -117 -209 -138 -513 -58 -836 53 -210
152 -453 313 -764 197 -382 211 -412 291 -610 43 -107 92 -222 109 -255 57
-114 140 -225 263 -355 34 -36 95 -99 134 -140 206 -216 439 -559 455 -671 25
-178 126 -432 270 -679 111 -190 327 -489 425 -589 39 -40 175 -313 210 -421
41 -127 52 -237 55 -565 2 -296 -6 -449 -40 -730 -8 -71 -10 -95 -20 -200 -4
-44 -9 -91 -11 -105 -3 -14 -7 -164 -10 -335 -2 -170 -6 -353 -8 -405 -2 -52
-5 -171 -6 -265 l-2 -170 -66 134 -65 135 -2 350 c-1 225 -6 373 -14 411 -7
33 -14 72 -16 87 -2 15 -27 116 -56 225 -59 227 -94 389 -104 483 -4 36 -9
209 -10 385 -2 246 -7 338 -19 398 -23 111 -34 127 -90 127 -58 0 -83 -50
-146 -295 -35 -136 -46 -184 -55 -252 -2 -13 -6 -40 -9 -60 -32 -190 -39 -561
-15 -724 4 -30 10 -79 14 -109 31 -284 147 -649 303 -955 42 -82 47 -98 52
-178 l5 -88 -29 33 c-15 18 -67 76 -115 128 -129 141 -227 260 -335 405 -53
72 -100 135 -104 140 -46 61 -249 402 -362 610 -18 33 -77 137 -130 230 -213
370 -327 638 -468 1095 -39 126 -92 363 -107 477 -2 18 -6 48 -9 65 -3 18 -8
49 -10 68 -3 19 -7 55 -11 80 -9 71 -15 121 -20 175 -3 28 -7 66 -10 85 -2 19
-7 60 -10 90 -18 168 -43 354 -64 470 -20 113 -24 131 -46 225 -9 39 -18 77
-20 85 -11 47 -88 267 -120 340 -73 170 -155 319 -459 830 -260 438 -401 625
-630 838 -156 145 -196 165 -235 117 -19 -25 -19 -29 -4 -78 28 -97 80 -242
132 -368 28 -69 51 -129 51 -132 0 -4 11 -30 24 -59 106 -231 196 -529 230
-758 21 -139 26 -512 11 -775 -4 -71 -8 -164 -10 -205 -5 -113 -5 -647 0 -715
2 -33 7 -96 10 -141 3 -45 7 -90 9 -100 2 -10 7 -46 10 -79 11 -98 22 -159 62
-355 12 -57 45 -171 77 -265 130 -381 347 -713 701 -1068 176 -178 402 -374
766 -667 190 -152 390 -320 390 -328 0 -4 10 -18 23 -32 31 -35 129 -149 158
-184 13 -17 42 -50 65 -75 169 -190 426 -505 537 -658 57 -80 64 -93 51 -104
-9 -7 -14 -23 -11 -36 3 -15 0 -20 -7 -15 -7 4 -45 30 -86 58 -41 28 -88 59
-105 68 -16 9 -46 26 -65 38 -58 35 -259 135 -355 176 -139 61 -381 152 -402
152 -27 0 -63 -37 -63 -64 0 -13 10 -36 22 -52 57 -74 126 -120 307 -206 277
-132 318 -156 401 -240 58 -60 156 -203 220 -323 123 -230 191 -327 325 -460
49 -50 102 -100 118 -113 25 -20 27 -27 28 -99 0 -43 2 -202 4 -353 6 -413 7
-1193 1 -1295 -5 -79 -9 -121 -21 -240 -6 -52 -35 -217 -51 -285 -29 -121
-134 -446 -179 -555 -7 -16 -39 -95 -70 -175 -32 -80 -66 -163 -76 -185 -72
-162 -108 -264 -116 -330 -3 -27 -14 -66 -24 -85 -42 -77 -16 -165 75 -255 83
-83 213 -136 331 -136 112 0 172 27 283 128 48 44 53 53 56 98 4 50 12 97 22
125 6 17 6 225 0 255 -2 11 -7 45 -10 75 -4 30 -13 98 -20 150 -8 54 -13 150
-11 220 3 136 11 168 84 346 73 182 79 219 96 629 2 61 8 173 12 250 14 259 7
940 -11 1125 -2 19 -7 86 -11 147 -3 62 -8 132 -10 155 -28 331 -22 516 21
600 15 29 59 128 99 220 167 387 279 501 640 647 374 152 551 244 806 416 483
328 709 658 824 1206 8 39 18 94 21 122 4 29 8 55 10 58 9 16 19 237 19 420 0
222 -2 231 -54 251 -46 17 -67 1 -149 -109 -76 -103 -119 -168 -282 -423 -205
-319 -337 -462 -764 -825 -177 -151 -402 -354 -513 -463 -105 -105 -268 -289
-319 -360 -29 -42 -52 -57 -36 -24 5 9 23 76 41 147 107 433 159 603 235 774
60 134 119 230 249 405 176 237 231 329 276 463 32 95 25 133 -24 133 -36 0
-239 -211 -372 -385 -177 -234 -395 -615 -506 -886 -25 -61 -26 -62 -27 -28 0
29 21 159 44 268 4 19 86 368 101 431 19 79 56 241 61 265 3 17 9 49 15 73 5
23 12 57 14 75 3 17 12 69 19 114 13 79 16 86 69 146 184 210 342 339 806 659
196 135 229 156 266 162 17 3 73 13 125 22 52 9 102 18 112 19 9 2 38 7 65 11
26 3 55 8 63 9 8 2 35 6 60 10 25 4 52 9 60 10 8 1 35 6 60 10 86 13 280 65
390 104 456 163 764 384 898 646 36 70 71 184 66 215 -5 29 -47 70 -72 70 -10
0 -60 -25 -112 -57 -92 -54 -210 -113 -229 -113 -5 0 9 19 30 41 82 87 207
270 283 415 21 39 50 84 65 100 14 16 42 49 61 74 130 166 317 344 526 500
172 128 356 298 444 409 138 173 315 443 393 596 116 231 184 466 191 654 2
56 11 107 25 146 24 66 87 292 96 340 2 17 7 41 10 55 15 69 26 129 31 165 3
22 7 46 10 54 2 8 9 44 14 80 6 36 13 82 16 101 9 56 59 318 108 555 24 121
47 243 51 270 3 28 8 66 11 85 13 82 12 359 -1 448 -18 125 -45 162 -102 141
-29 -10 -47 -49 -63 -129 -6 -36 -14 -74 -16 -85 -2 -10 -6 -37 -9 -60 -3 -22
-8 -51 -10 -65 -2 -14 -7 -52 -10 -85 -5 -52 -22 -163 -40 -260 -11 -60 -48
-182 -77 -254 -28 -72 -40 -98 -140 -311 -27 -58 -73 -157 -101 -220 -55 -124
-132 -278 -122 -245 9 28 76 276 81 298 8 34 12 53 33 137 21 89 55 263 66
340 3 25 8 56 10 70 2 14 7 52 11 85 3 33 8 69 10 80 9 47 18 263 18 420 0
246 -5 314 -21 331 -18 17 -47 18 -61 2 -26 -33 -112 -259 -199 -523 -80 -244
-129 -377 -260 -705 l-14 -35 6 40 c21 157 56 278 190 660 85 244 131 427 126
506 -1 8 -10 25 -21 37 -29 30 -73 29 -98 -3 -31 -39 -105 -187 -162 -325 -29
-69 -60 -143 -69 -165 -10 -22 -26 -60 -36 -85 -41 -99 -147 -295 -265 -490
-68 -113 -161 -279 -208 -369 l-84 -164 7 59 c4 33 9 67 11 77 2 10 6 55 9
100 3 45 8 107 10 137 2 30 7 96 10 145 4 50 9 108 11 130 3 22 6 54 8 70 6
56 17 130 26 175 5 25 12 63 15 85 3 22 7 47 10 55 2 8 6 31 9 50 3 19 8 46
11 60 12 61 15 77 20 105 5 32 22 127 29 161 6 30 14 80 22 139 3 28 8 59 10
69 6 33 18 189 18 238 0 54 -20 77 -66 78 -40 0 -62 -27 -119 -148 -123 -258
-227 -585 -263 -824 -14 -90 -18 -114 -21 -138 -5 -32 -14 -112 -20 -175 -2
-27 -5 -52 -5 -55 -5 -16 -103 390 -125 515 -30 170 -29 183 4 327 56 237 88
543 66 631 -8 31 -55 53 -82 39 -30 -17 -92 -212 -108 -347 -4 -27 -8 -61 -11
-75 -2 -14 -5 -93 -5 -177 0 -117 -4 -169 -19 -225 -30 -116 -50 -236 -56
-328 -2 -47 -7 -121 -9 -165 -3 -44 -7 -93 -10 -110 -11 -65 -14 -81 -15 -115
-2 -31 -4 -28 -17 25 -41 167 -99 372 -163 575 -63 198 -121 404 -134 472 -49
265 -60 368 -60 593 -1 147 8 317 19 373 13 73 15 131 3 138 -41 26 -74 6 -83
-48 -26 -172 -38 -241 -50 -298 -8 -36 -17 -80 -20 -98 -3 -19 -14 -71 -25
-116 -19 -85 -26 -117 -36 -175 -3 -18 -8 -43 -10 -55 -41 -188 -59 -355 -59
-548 l1 -157 -34 77 c-30 67 -106 281 -117 330 -54 228 -81 374 -91 497 -3 33
-7 66 -10 73 -7 22 -18 252 -16 337 7 336 4 575 -8 590 -15 18 -66 20 -76 3
-4 -7 -9 -98 -10 -203 -6 -463 -24 -545 -206 -914 -78 -159 -113 -220 -119
-210 -5 8 -20 50 -33 94 -24 78 -34 117 -95 375 -16 69 -37 152 -46 185 -10
33 -18 67 -20 75 -2 8 -19 78 -39 155 -19 77 -37 151 -39 165 -3 14 -14 70
-25 125 -12 55 -26 129 -32 165 -14 78 -23 90 -66 90 -60 0 -63 -14 -64 -295
0 -138 -2 -279 -5 -315 -9 -146 -16 -236 -20 -250 -2 -8 -6 -37 -10 -64 -3
-28 -15 -88 -26 -135 -25 -105 -25 -102 -32 -121 -3 -8 -11 -33 -17 -55 -17
-55 -99 -252 -126 -298 l-22 -39 -22 24 c-71 75 -176 269 -225 413 -70 208
-94 404 -100 800 -6 387 -8 479 -13 493 -5 14 -54 42 -75 42 -7 0 -21 -6 -30
-12z m-12 -505 c6 -225 22 -431 40 -533 1 -8 6 -35 10 -60 12 -71 13 -78 35
-163 47 -180 133 -361 239 -505 l59 -80 -71 -48 c-194 -128 -338 -245 -495
-404 -46 -47 -81 -80 -78 -73 9 17 44 186 55 268 18 132 27 259 46 675 3 63 7
144 10 180 10 146 16 227 20 255 2 17 7 53 10 80 3 28 10 75 15 105 5 30 11
69 14 85 2 17 9 50 14 75 6 25 13 56 16 70 12 57 50 189 54 185 2 -2 5 -52 7
-112z m951 -678 c20 -77 38 -151 41 -165 8 -48 52 -215 68 -259 8 -24 15 -45
15 -47 0 -1 -21 3 -48 11 -99 30 -194 23 -307 -22 -100 -41 -92 -39 -74 -17 8
10 27 44 42 74 82 172 134 386 154 630 3 41 7 84 8 95 1 11 3 31 4 45 2 24 17
-29 97 -345z m598 -80 c14 -179 23 -254 46 -370 6 -27 12 -59 14 -70 21 -107
85 -305 121 -375 13 -26 -4 -16 -108 62 -69 51 -161 118 -206 148 -45 30 -95
64 -111 75 l-28 21 38 101 c21 56 70 167 109 248 39 81 71 148 71 150 0 10 41
97 44 94 2 -2 7 -40 10 -84z m512 -142 c1 -33 14 -189 19 -212 1 -9 6 -41 11
-71 4 -30 8 -57 9 -60 1 -3 5 -23 9 -45 18 -94 51 -222 103 -400 105 -363 151
-531 176 -650 14 -66 24 -121 23 -123 -2 -1 -24 40 -51 90 -78 151 -202 334
-325 478 -48 56 -55 75 -65 165 -11 104 -5 356 10 434 2 10 6 42 10 71 4 29 8
60 10 69 1 9 13 70 25 136 22 124 27 145 33 145 1 0 3 -12 3 -27z m-2747 -552
c72 -211 99 -352 102 -531 3 -155 -11 -251 -62 -416 -18 -60 -115 -323 -139
-379 -34 -78 -100 -307 -100 -347 0 -38 -17 -15 -44 60 -16 42 -62 174 -103
292 -61 179 -72 223 -68 260 7 66 15 123 20 140 2 8 7 31 10 50 12 68 47 218
110 470 35 140 66 271 70 290 3 19 7 46 10 60 11 62 22 243 25 405 l1 60 68
-160 c37 -88 82 -203 100 -254z m1601 128 c77 -6 146 -37 225 -103 63 -52 84
-76 224 -255 63 -80 141 -177 175 -216 72 -83 58 -68 172 -191 171 -186 189
-207 271 -312 189 -243 314 -484 373 -719 26 -101 24 -112 -4 -38 -88 229
-212 400 -505 694 -313 315 -417 442 -531 644 -141 250 -157 273 -226 343 -85
86 -146 114 -239 109 -72 -3 -87 -6 -151 -36 -107 -49 -211 -148 -376 -354
-126 -159 -111 -143 -332 -365 -106 -107 -232 -242 -280 -300 -90 -108 -231
-313 -280 -410 -16 -30 -33 -59 -38 -65 -38 -39 122 237 225 390 289 426 565
758 812 974 61 52 200 145 252 168 41 17 175 52 183 48 3 -2 25 -5 50 -6z
m-3502 -51 c5 -74 38 -277 67 -403 54 -242 190 -636 325 -940 39 -87 63 -143
84 -187 46 -101 94 -203 126 -273 95 -204 115 -247 150 -330 20 -49 45 -115
55 -145 22 -74 52 -154 80 -215 73 -162 151 -482 185 -755 9 -73 11 -657 2
-673 -5 -11 -16 11 -81 161 -58 134 -106 311 -146 534 -14 78 -27 154 -30 168
-3 14 -8 41 -10 60 -3 19 -10 53 -15 75 -5 22 -19 85 -31 140 -25 119 -78 282
-125 385 -56 122 -143 250 -170 250 -20 0 -18 -13 12 -78 102 -222 171 -497
229 -922 3 -25 8 -56 10 -70 3 -14 7 -47 10 -75 3 -27 9 -75 14 -105 l9 -54
-22 25 c-128 153 -268 312 -351 400 -52 55 -55 64 -100 289 -12 58 -45 269
-50 320 -4 30 -8 69 -10 85 -7 55 -16 278 -20 540 -7 375 -21 552 -50 655 -2
8 -7 31 -10 50 -3 19 -13 64 -21 100 -9 36 -17 72 -19 80 -3 13 -19 80 -30
130 -52 222 -78 360 -90 475 -7 63 -7 232 0 275 2 14 4 35 4 48 1 34 16 19 19
-20z m3537 -92 c92 -43 171 -145 295 -381 120 -230 208 -342 502 -640 241
-246 265 -272 349 -382 166 -218 228 -405 223 -664 -2 -100 -6 -127 -30 -185
-36 -94 -43 -97 -27 -12 16 93 15 257 -4 354 -48 256 -175 446 -475 712 -78
68 -108 101 -108 118 0 27 -43 64 -69 57 -13 -3 -36 15 -81 64 -131 142 -170
204 -310 498 -34 72 -83 161 -107 199 -59 91 -181 216 -212 216 -18 0 -95 -52
-201 -137 -8 -6 -62 -49 -120 -94 -499 -393 -775 -698 -1052 -1165 -86 -145
-153 -285 -193 -408 -39 -115 -43 -116 -16 -1 67 279 246 614 465 869 56 66
66 77 265 281 160 165 270 286 374 411 226 273 385 360 532 290z m485 -85
c150 -108 289 -231 407 -357 296 -317 472 -597 559 -889 25 -83 27 -88 43
-195 28 -182 25 -191 -14 -54 -49 169 -139 356 -257 534 -45 67 -125 177 -138
190 -3 3 -18 21 -34 40 -29 35 -129 149 -221 249 -54 60 -57 64 -95 107 -82
95 -156 180 -160 184 -3 3 -46 55 -95 115 -49 61 -102 125 -119 144 -29 31
-30 33 -6 21 14 -7 72 -47 130 -89z m1721 -122 c-41 -196 -39 -185 -66 -359
-13 -85 -26 -193 -30 -240 -3 -47 -8 -105 -10 -130 -3 -25 -7 -73 -11 -108 -3
-35 -7 -72 -9 -82 -5 -26 -18 -140 -19 -167 -1 -13 -4 -23 -8 -23 -7 0 -9 10
-13 65 0 11 2 38 6 60 11 58 18 160 24 325 7 187 11 226 36 360 16 87 19 103
30 145 13 57 93 304 97 300 2 -1 -10 -67 -27 -146z m1075 -76 c-9 -164 -19
-280 -31 -363 -59 -409 -150 -736 -310 -1125 -73 -177 -121 -259 -243 -418
-67 -88 -122 -163 -122 -168 0 -5 -4 -9 -9 -9 -5 0 8 44 28 98 59 150 106 324
131 482 6 41 29 122 50 180 21 58 73 206 116 330 42 124 111 315 154 425 74
188 143 389 207 602 15 51 30 93 32 93 2 0 0 -57 -3 -127z m-3270 92 c43 -28
95 -104 150 -221 69 -148 168 -349 192 -389 35 -62 112 -163 171 -226 33 -35
61 -67 61 -71 0 -3 -16 -35 -36 -70 -64 -112 -189 -375 -256 -538 -21 -52 -43
-104 -48 -115 -20 -44 -286 -755 -352 -940 -34 -98 -95 -294 -103 -335 -2 -8
-8 -35 -15 -60 -14 -53 -17 -65 -31 -150 -6 -36 -13 -71 -15 -79 -3 -8 -29 37
-58 100 -29 63 -78 166 -108 229 -141 292 -190 460 -224 770 -2 25 -7 178 -9
340 -5 284 -6 296 -26 313 -49 41 -97 7 -104 -73 -3 -30 -8 -71 -11 -90 -4
-19 -8 -47 -10 -61 -26 -200 -160 -526 -390 -949 -164 -303 -234 -461 -284
-648 l-28 -107 -2 90 c-3 252 -14 505 -25 610 -2 22 -7 72 -10 110 -9 104 -22
189 -46 305 -11 58 -21 112 -20 120 0 15 16 113 26 160 2 14 10 50 16 80 57
285 244 674 463 960 164 214 373 433 595 620 68 58 164 140 214 183 169 148
248 180 323 132z m-4104 -115 c256 -476 349 -743 394 -1130 3 -25 7 -58 9 -75
3 -16 7 -52 10 -80 3 -27 7 -66 10 -85 15 -115 15 -126 3 -100 -98 221 -174
450 -193 580 -7 45 -23 66 -38 51 -11 -11 -13 -161 -3 -230 12 -82 40 -181
106 -377 33 -98 59 -182 57 -187 -4 -12 -120 312 -157 438 -34 117 -77 303
-125 540 -45 222 -53 267 -75 395 -6 30 -12 66 -15 80 -3 14 -14 77 -26 140
-11 63 -23 126 -26 140 -5 24 -5 24 9 5 8 -11 35 -58 60 -105z m3178 -31 c-81
-97 -358 -459 -451 -589 -86 -121 -160 -236 -213 -332 -21 -38 -39 -68 -41
-68 -7 0 65 164 121 273 137 271 339 531 559 719 44 37 81 68 83 68 1 0 -25
-32 -58 -71z m2660 -224 c12 -55 23 -107 25 -115 2 -8 8 -37 15 -65 6 -27 38
-149 70 -270 71 -262 68 -248 69 -357 1 -70 4 -88 15 -88 24 0 27 -14 33 -140
5 -111 3 -129 -23 -222 -15 -56 -29 -98 -30 -93 -4 14 -55 294 -59 325 -2 14
-6 39 -9 55 -5 28 -16 120 -31 240 -3 28 -8 59 -10 70 -2 11 -7 45 -10 75 -7
75 -34 279 -40 310 -3 14 -7 48 -10 75 -8 69 -23 112 -42 119 -13 5 -15 17 -9
69 4 34 8 71 11 82 2 11 4 27 5 35 2 21 6 7 30 -105z m-4305 -22 c4 -40 8 -85
10 -100 22 -176 23 -743 1 -923 -2 -19 -7 -67 -11 -106 -3 -39 -7 -80 -9 -90
-8 -43 -28 -206 -32 -259 -6 -80 -6 -81 -14 -40 -7 35 -14 86 -26 190 -23 203
-22 684 1 840 2 17 7 59 10 93 3 35 12 118 20 185 8 67 18 142 20 167 3 25 8
54 10 65 2 11 4 29 4 39 2 38 9 9 16 -61z m5259 -353 c-24 -122 -28 -149 -44
-300 -6 -52 -13 -111 -15 -130 -9 -82 -16 -138 -20 -185 -3 -27 -7 -61 -9 -75
-2 -14 -7 -47 -10 -74 -27 -197 -111 -499 -189 -681 -57 -134 -166 -334 -251
-465 -112 -170 -215 -339 -240 -393 -10 -21 -19 -37 -21 -35 -2 2 2 32 10 68
13 65 20 110 31 205 3 28 19 102 34 165 23 90 92 414 114 535 4 21 43 192 53
235 3 14 7 32 9 40 9 46 80 278 110 360 20 52 68 163 109 245 63 128 109 209
283 493 12 20 31 54 43 75 11 22 22 37 23 35 2 -1 -7 -55 -20 -118z m917 -86
c-22 -104 -42 -209 -46 -234 -4 -24 -8 -47 -10 -51 -2 -3 -7 -30 -10 -60 -4
-30 -17 -106 -31 -169 -49 -237 -107 -420 -254 -815 -106 -285 -134 -353 -201
-488 -167 -338 -308 -494 -679 -757 -59 -42 -80 -47 -39 -10 20 19 128 162
184 245 136 204 206 377 294 735 30 125 64 236 86 284 41 90 176 361 225 451
55 101 263 515 309 615 25 52 66 142 94 200 69 147 83 180 98 223 26 73 19 20
-20 -169z m-7906 -39 c9 -49 27 -135 41 -190 14 -55 26 -107 28 -115 16 -68
107 -339 136 -405 5 -11 21 -49 36 -85 14 -36 56 -126 93 -200 181 -364 326
-564 706 -975 56 -60 119 -130 141 -155 21 -24 46 -51 54 -60 155 -168 315
-396 351 -500 12 -36 27 -72 33 -80 6 -8 -2 -4 -18 8 -52 40 -103 22 -131 -46
-11 -25 -11 -25 -39 29 -38 72 -102 171 -194 299 -75 103 -245 356 -375 557
-36 55 -71 104 -77 108 -55 34 -3 -174 79 -317 23 -40 87 -136 142 -213 151
-211 232 -344 324 -532 8 -18 14 -33 11 -33 -2 0 -34 42 -70 93 -69 97 -83
112 -256 297 -157 167 -165 177 -224 265 -66 98 -146 258 -216 430 -54 135
-96 221 -317 660 -186 369 -240 504 -289 724 -28 127 -38 318 -22 416 4 22 10
59 14 83 4 24 10 40 14 35 5 -4 16 -48 25 -98z m2135 -110 c7 -27 77 -243 156
-480 174 -521 231 -745 259 -1005 3 -30 8 -75 10 -100 10 -90 21 -291 30 -530
9 -242 16 -375 20 -420 15 -152 19 -185 30 -260 12 -85 19 -133 34 -230 5 -36
13 -96 17 -135 3 -38 8 -73 11 -77 2 -5 1 -8 -4 -8 -4 0 -21 37 -36 83 -45
128 -116 301 -227 552 -157 355 -189 438 -204 528 -32 189 -43 322 -51 627
-11 396 -24 602 -39 617 -17 17 -33 -34 -41 -138 -2 -20 -6 -65 -10 -100 -4
-35 -9 -80 -10 -99 -21 -317 -23 -472 -10 -670 10 -162 11 -151 -10 -250 -3
-14 -9 -47 -15 -75 -9 -45 -15 -75 -40 -185 -10 -43 -10 -40 -15 91 -2 58 -6
123 -9 145 -3 21 -8 68 -12 104 -3 36 -8 68 -9 71 -2 3 -6 26 -9 52 -7 52 -38
187 -60 261 -8 27 -12 54 -8 60 4 6 7 92 8 191 1 164 10 370 19 427 2 13 6 48
10 79 3 31 7 66 10 77 2 11 7 42 10 69 4 26 20 111 37 188 35 164 29 138 66
295 38 158 65 281 65 298 0 24 14 -3 27 -53z m3043 -199 c63 -63 140 -149 170
-192 l54 -77 -57 -76 c-31 -42 -79 -112 -107 -156 -48 -76 -163 -292 -163
-306 0 -3 -13 -35 -28 -69 l-29 -63 -2 264 c-1 145 -3 391 -5 546 l-2 282 27
-19 c15 -11 79 -71 142 -134z m-274 -3 c-1 -16 2 -172 7 -348 11 -464 7 -923
-11 -1050 -2 -16 -6 -59 -9 -95 -7 -74 -24 -213 -31 -250 -3 -14 -8 -45 -11
-70 -3 -25 -8 -48 -10 -51 -2 -4 -6 -24 -10 -45 -10 -66 -62 -268 -95 -366
-92 -273 -226 -529 -402 -761 -32 -43 -61 -77 -63 -74 -2 2 21 75 52 163 174
497 219 645 263 869 16 83 33 184 36 225 4 41 8 80 10 87 6 18 -28 26 -41 9
-6 -9 -26 -73 -43 -143 -50 -194 -244 -769 -310 -918 -5 -11 -28 -68 -51 -127
-50 -129 -61 -140 -35 -38 15 58 14 326 -2 430 -18 118 -20 153 -10 225 3 28
9 70 12 95 32 261 116 580 243 935 109 302 389 1048 416 1110 7 17 30 72 51
123 21 50 40 92 42 92 2 0 3 -12 2 -27z m1091 17 c0 -5 -5 -10 -11 -10 -5 0
-7 5 -4 10 3 6 8 10 11 10 2 0 4 -4 4 -10z m10 -90 c6 -38 13 -80 15 -92 1
-13 14 -79 28 -149 44 -216 83 -443 92 -539 4 -36 8 -78 11 -95 5 -41 5 -314
0 -343 -3 -13 -6 -45 -7 -70 -1 -26 -8 -96 -16 -157 -14 -112 -16 -124 -28
-185 -3 -19 -7 -42 -9 -50 -34 -194 -127 -489 -216 -690 -23 -52 -47 -107 -53
-122 -6 -16 -15 -28 -20 -28 -4 0 -6 3 -4 8 27 43 24 611 -3 661 -18 34 -86
34 -110 1 -5 -7 -286 -232 -350 -280 -18 -14 -92 -71 -164 -126 -72 -56 -132
-101 -134 -99 -2 2 20 58 48 120 5 11 32 76 60 145 51 124 193 420 248 515 16
28 48 86 72 130 23 44 46 85 50 90 4 6 31 56 60 113 28 57 62 115 75 130 12
15 36 65 53 112 18 47 54 146 81 220 89 243 176 597 188 768 3 45 9 82 14 82
4 0 12 -31 19 -70z m-3289 -27 c-12 -20 -14 -14 -5 12 4 9 9 14 11 11 3 -2 0
-13 -6 -23z m-26 -59 c-8 -20 -15 -39 -15 -42 0 -3 -2 -3 -5 0 -6 5 22 78 30
78 3 0 -2 -16 -10 -36z m-34 -85 c-5 -13 -10 -19 -10 -12 -1 15 10 45 15 40 3
-2 0 -15 -5 -28z m-26 -79 c-7 -25 -14 -38 -14 -29 -1 18 20 82 25 77 2 -2 -3
-24 -11 -48z m-18 -72 c-3 -8 -6 -5 -6 6 -1 11 2 17 5 13 3 -3 4 -12 1 -19z
m-12 -60 c-4 -24 -9 -45 -12 -48 -3 -3 -3 13 1 35 3 22 5 43 6 48 0 4 2 7 5 7
3 0 3 -19 0 -42z m2789 -100 c-9 -170 -24 -279 -54 -413 -11 -45 -21 -92 -24
-105 -3 -14 -12 -52 -21 -85 -9 -33 -18 -67 -20 -75 -2 -8 -25 -85 -50 -170
-25 -85 -68 -236 -96 -335 -48 -175 -156 -509 -184 -570 -7 -16 -27 -61 -43
-100 -70 -167 -103 -223 -164 -276 -32 -27 -58 -48 -58 -44 0 3 16 38 36 77
78 155 179 460 210 631 32 185 52 314 59 388 1 14 12 59 23 100 12 40 40 142
63 224 84 303 168 529 267 718 46 88 59 96 56 35z m122 -126 c2 -132 -1 -158
-26 -257 -28 -114 -97 -305 -109 -305 -4 0 7 56 25 125 18 68 35 142 38 162 3
21 8 49 11 63 2 13 7 42 10 65 4 22 8 51 10 65 6 38 15 139 17 197 2 34 6 49
13 42 5 -5 10 -76 11 -157z m-2929 116 c-3 -7 -5 -2 -5 12 0 14 2 19 5 13 2
-7 2 -19 0 -25z m3 -28 c0 -5 -5 -10 -11 -10 -5 0 -7 5 -4 10 3 6 8 10 11 10
2 0 4 -4 4 -10z m47 -22 c-3 -7 -5 -2 -5 12 0 14 2 19 5 13 2 -7 2 -19 0 -25z
m3639 -173 c-12 -60 -26 -58 -26 3 0 21 28 68 36 60 1 -2 -3 -30 -10 -63z
m-2751 -91 c2 -21 6 -60 9 -86 3 -27 9 -69 12 -95 3 -25 10 -69 15 -97 6 -28
13 -64 16 -81 11 -67 80 -259 146 -410 138 -316 166 -386 206 -508 38 -117 74
-261 87 -345 3 -20 8 -48 11 -62 3 -14 6 -93 8 -176 4 -228 -22 -330 -149
-579 -36 -71 -78 -160 -93 -198 l-27 -69 -22 84 c-27 100 -82 259 -95 272 -5
6 -9 15 -9 22 0 7 -27 69 -59 137 l-60 126 19 48 c20 54 26 96 37 263 8 118 7
281 -1 328 -2 15 -7 46 -11 70 -6 31 -12 42 -26 42 -26 0 -27 -5 -34 -115 -3
-55 -8 -134 -10 -175 -7 -118 -41 -310 -54 -310 -3 0 -20 25 -38 55 l-32 55
20 57 c24 71 34 211 33 468 -1 265 -6 344 -21 357 -17 14 -29 -18 -38 -102 -4
-36 -8 -72 -10 -80 -1 -8 -6 -46 -9 -85 -22 -226 -32 -313 -47 -407 l-11 -67
-26 30 c-33 35 -89 45 -122 22 -32 -23 -192 -370 -258 -558 -8 -23 -11 -25
-12 -10 -1 11 -3 31 -5 45 -1 14 -6 59 -9 100 -4 41 -9 84 -11 95 -6 27 -14
71 -21 125 -3 25 -8 48 -10 51 -2 3 1 21 6 40 5 19 11 52 14 74 13 110 80 370
136 524 70 194 129 322 228 496 81 142 121 218 171 320 51 107 141 326 141
346 0 27 11 -1 15 -37z m-4460 -359 c79 -102 116 -156 192 -280 54 -89 183
-321 183 -329 0 -2 66 -120 146 -262 341 -605 415 -813 479 -1349 2 -17 6 -64
10 -105 3 -41 8 -86 10 -100 2 -14 7 -56 10 -95 4 -38 8 -88 11 -110 3 -22 7
-56 9 -75 2 -19 7 -57 10 -85 3 -27 15 -102 25 -165 97 -570 306 -1174 572
-1655 25 -44 74 -136 111 -205 37 -69 81 -150 98 -180 17 -30 27 -50 21 -45
-11 10 -167 263 -214 345 -53 92 -239 425 -272 484 -18 33 -72 133 -120 220
-192 350 -249 489 -381 929 -82 277 -155 496 -175 527 -22 35 -20 -6 4 -102
25 -102 82 -350 90 -392 2 -11 9 -39 14 -61 6 -22 13 -51 15 -65 27 -153 143
-541 210 -700 63 -151 363 -768 467 -958 44 -82 64 -127 42 -97 -4 6 -34 33
-67 60 -33 28 -65 55 -71 60 -11 10 -118 103 -158 138 -40 35 -231 224 -286
283 -288 312 -462 599 -574 949 -28 87 -71 252 -79 300 -3 17 -8 41 -11 55 -3
14 -8 41 -11 60 -3 19 -7 44 -9 55 -2 11 -7 49 -11 85 -4 36 -9 74 -11 85 -2
10 -7 58 -10 105 -3 47 -8 99 -11 115 -2 17 -6 323 -7 680 -3 627 -6 712 -27
875 -13 102 -16 120 -44 238 -43 178 -76 269 -284 780 -39 95 -71 176 -71 180
1 11 107 -107 175 -193z m7960 19 c-50 -215 -87 -328 -150 -459 -108 -224
-266 -430 -455 -595 -41 -36 -77 -67 -80 -70 -7 -8 -73 -55 -88 -64 -8 -5 35
56 95 135 171 225 297 419 272 419 -7 0 -31 -20 -53 -44 -23 -25 -77 -82 -121
-128 -44 -46 -115 -121 -158 -167 l-77 -84 39 79 c22 43 43 93 46 111 9 52 21
75 70 133 26 30 55 64 65 76 52 62 163 222 282 409 209 327 200 314 227 312
17 -1 36 13 70 49 25 28 47 50 49 49 2 -2 -13 -74 -33 -161z m67 -881 c-140
-171 -230 -257 -438 -418 -118 -92 -281 -234 -340 -298 -37 -39 -63 -66 -59
-58 13 22 65 244 65 277 0 23 7 34 27 45 42 21 255 144 331 190 169 104 396
272 456 338 11 11 23 21 28 21 5 0 -27 -44 -70 -97z m-4925 45 c13 -16 227
-532 293 -705 43 -113 110 -321 125 -385 30 -137 34 -159 60 -353 12 -90 23
-437 14 -427 -10 11 -128 309 -139 351 -5 20 -25 101 -45 181 -63 257 -91 343
-139 440 -23 45 -39 66 -54 68 -22 3 -41 -22 -37 -48 1 -8 5 -51 9 -95 4 -44
11 -96 16 -115 5 -19 11 -51 14 -70 11 -72 58 -240 116 -411 33 -96 60 -179
60 -184 0 -5 -14 11 -32 36 -18 24 -35 46 -38 49 -29 28 -110 147 -162 241
-86 153 -142 286 -162 384 -2 6 -9 37 -16 70 -22 97 -19 417 5 535 3 14 8 41
11 60 2 19 7 46 10 60 2 14 6 36 9 50 2 14 11 57 20 95 8 39 16 79 18 90 17
96 24 109 44 83z m3536 -234 c1 -179 -5 -271 -22 -332 -5 -17 -8 -32 -6 -32 7
0 -35 -114 -66 -177 -34 -70 -38 -73 -199 -180 -180 -119 -295 -220 -412 -363
l-37 -45 38 120 c20 66 54 158 74 205 20 47 37 95 37 107 0 34 -33 66 -66 65
-44 -1 -490 -220 -634 -311 -21 -13 -23 -13 -14 -1 6 8 32 43 58 77 26 35 69
87 96 116 41 45 54 53 77 50 30 -5 60 25 166 164 53 69 181 177 541 452 131
101 250 193 265 206 72 63 87 73 94 66 4 -4 9 -88 10 -187z m-3989 -344 c3
-14 -3 -7 -13 15 -11 22 -20 45 -20 50 0 15 26 -37 33 -65z m-104 -155 c10
-22 37 -82 59 -133 91 -207 142 -284 404 -606 215 -265 546 -748 563 -823 3
-16 12 -37 19 -49 13 -20 26 -157 15 -152 -3 2 -45 34 -94 73 -79 63 -97 84
-182 213 -51 78 -98 148 -104 155 -6 6 -49 66 -96 132 -47 66 -93 131 -104
145 -37 50 -95 129 -110 149 -17 25 -50 28 -50 5 0 -9 25 -65 56 -123 64 -122
60 -121 -24 6 -197 295 -321 552 -361 743 -6 30 -14 66 -17 80 -15 69 -11 290
4 239 3 -7 13 -32 22 -54z m4576 33 c-32 -192 -215 -579 -345 -732 -80 -94
-183 -185 -301 -268 -63 -44 -68 -46 -158 -52 -51 -4 -101 -9 -110 -11 -9 -1
-39 -6 -67 -9 -71 -10 -246 -52 -337 -81 -89 -29 -94 -30 -81 -12 6 6 27 55
48 107 115 284 368 519 870 810 88 51 230 135 315 186 85 51 159 93 163 93 5
1 6 -14 3 -31z m-2919 -113 c73 -127 131 -239 173 -335 44 -99 99 -243 105
-273 2 -9 6 -21 9 -25 3 -5 7 -19 10 -33 2 -13 11 -55 20 -92 28 -117 36 -241
23 -347 -16 -129 -56 -235 -195 -512 -59 -117 -120 -240 -134 -273 -42 -92
-58 -109 -97 -100 l-32 7 6 81 c12 182 26 361 30 397 2 14 6 61 10 105 4 44 9
94 11 110 26 198 23 559 -6 605 -19 30 -38 -14 -55 -125 -21 -140 -22 -149
-30 -215 -4 -30 -8 -66 -10 -80 -2 -14 -7 -50 -10 -80 -3 -30 -10 -91 -16
-135 -5 -44 -12 -100 -15 -125 -3 -25 -7 -56 -10 -70 -3 -14 -7 -43 -9 -65 -3
-22 -7 -53 -10 -70 -2 -16 -7 -52 -11 -80 -3 -27 -7 -51 -9 -53 -7 -8 -56 148
-80 254 -45 199 -61 360 -53 520 5 76 9 146 11 154 2 8 7 38 11 65 30 204 137
531 271 832 32 71 25 74 92 -42z m1613 -352 c-12 -37 -23 -75 -25 -83 -2 -8
-20 -73 -40 -145 -89 -320 -162 -475 -285 -608 -107 -117 -233 -190 -521 -305
-96 -39 -200 -82 -229 -96 -30 -14 -56 -26 -60 -26 -10 0 263 540 324 640 165
270 363 441 746 644 57 30 106 53 108 51 2 -1 -6 -34 -18 -72z m-1017 -525
c-6 -7 -20 -50 -31 -96 -30 -118 -39 -127 -38 -38 1 63 4 77 18 82 10 3 25 21
34 40 9 19 19 32 22 30 3 -3 0 -11 -5 -18z m2056 -125 c-48 -71 -194 -212
-279 -270 -205 -139 -553 -277 -800 -318 -19 -3 -71 -12 -115 -21 -44 -8 -98
-17 -120 -19 -93 -11 -502 -91 -595 -116 -126 -34 -261 -79 -329 -110 -35 -16
-66 -28 -68 -26 -7 8 166 129 237 166 41 21 154 71 250 111 277 114 346 153
525 303 67 57 125 92 246 148 17 8 158 48 190 54 12 2 28 6 37 9 9 3 37 8 62
12 25 3 56 8 70 11 14 3 126 6 250 7 249 3 282 9 400 71 36 19 66 34 68 34 2
1 -12 -20 -29 -46z m-3095 -782 c3 -5 -1 -11 -9 -15 -9 -3 -15 0 -15 9 0 16
16 20 24 6z m-304 -45 c0 -12 -5 -7 -19 24 -11 24 -11 24 3 6 9 -11 16 -24 16
-30z m1149 -222 c-141 -94 -191 -134 -344 -274 l-38 -35 24 35 c47 69 196 208
279 262 71 46 145 81 184 87 4 0 -43 -33 -105 -75z m-389 -128 c0 -2 -8 -10
-17 -17 -16 -13 -17 -12 -4 4 13 16 21 21 21 13z m-1462 -423 c-1 -153 1 -191
18 -303 9 -54 43 -194 75 -310 34 -118 30 -104 57 -225 24 -103 29 -139 38
-250 7 -83 8 -305 1 -311 -3 -4 -85 210 -92 242 -2 11 -13 51 -25 89 -25 86
-76 337 -85 425 -4 36 -10 79 -12 95 -9 60 -10 462 -2 515 9 59 17 141 18 178
1 12 3 22 5 22 3 0 4 -75 4 -167z m3166 -232 c-3 -71 -14 -227 -18 -248 -2
-10 -7 -40 -10 -68 -26 -196 -110 -464 -194 -623 -82 -157 -230 -335 -381
-462 -178 -150 -484 -336 -681 -415 -36 -14 -74 -30 -85 -35 -104 -48 -105
-46 -10 51 197 202 276 273 394 352 132 90 177 135 212 216 38 88 18 93 -59
14 -50 -52 -101 -90 -201 -149 -152 -90 -184 -116 -406 -333 -177 -173 -200
-192 -364 -311 -124 -90 -124 -91 -17 50 150 198 416 474 636 660 29 25 59 50
65 57 7 6 34 30 61 53 279 239 360 311 512 455 99 94 192 204 268 317 43 64
192 322 244 421 14 26 28 47 31 47 3 0 5 -22 3 -49z m-1349 -158 c-30 -56
-235 -332 -235 -318 0 24 229 344 248 345 1 0 -4 -12 -13 -27z m-635 -1205
c-6 -13 -28 -95 -51 -183 -53 -211 -80 -289 -123 -364 -12 -22 -13 -16 -9 60
4 71 13 104 59 221 62 156 120 288 128 288 3 0 1 -10 -4 -22z m-1070 -1054
c105 -77 127 -101 136 -142 11 -55 10 -53 27 -110 9 -29 12 -50 7 -47 -6 4
-106 149 -127 184 -1 2 -13 4 -27 4 -19 0 -33 12 -62 56 -20 31 -52 75 -70 98
-19 23 -34 44 -34 48 0 10 69 -32 150 -91z m195 -4514 c6 -4 27 -13 48 -19 20
-7 65 -31 98 -54 l62 -41 -26 -22 c-54 -46 -184 -33 -269 27 -24 18 -27 25
-24 62 2 22 11 46 20 52 16 12 73 9 91 -5z"/>
</g>
</svg>
